<?xml version="1.0" encoding="utf-8"?>
<svg version="1.1" xmlns="http://www.w3.org/2000/svg" x="0px" y="0px" width="16px" height="16px" viewBox="0 0 16 16">
<path id="status-order-descending" d="M5.15,11.15L4,12.29V2.25c0-.28-.2-.5-.5-.5S3,1.97,3,2.25v10.04l-1.15-1.15c-.2-.2-.5-.2-.7,0s-.2.5,0,.7l2,2c.24.2,.47.2,.7,0l2-2c.2-.2.2-.5,0-.7S5.34,10.95,5.15,11.15zM15.5,2h-9C6.2,2,6,2.2,6,2.5S6.2,3,6.5,3h9C15.78,3,16,2.78,16,2.5S15.78,2,15.5,2zM13,5H6.5C6.2,5,6,5.2,6,5.5S6.2,6,6.5,6H13c.28,0,.5-.2.5-.5S13.28,5,13,5zM11,8H6.5C6.2,8,6,8.2,6,8.5S6.2,9,6.5,9H11c.28,0,.5-.2.5-.5S11.28,8,11,8z"/>
</svg>
